<?xml version="1.0" encoding="UTF-8" standalone="no"?>
<!-- Created with Inkscape (http://www.inkscape.org/) -->

<svg
   width="297mm"
   height="210mm"
   viewBox="0 0 297 210"
   version="1.1"
   id="svg1"
   xml:space="preserve"
   inkscape:version="1.4.2 (f4327f4, 2025-05-13)"
   sodipodi:docname="Soundit_logo.svg"
   xmlns:inkscape="http://www.inkscape.org/namespaces/inkscape"
   xmlns:sodipodi="http://sodipodi.sourceforge.net/DTD/sodipodi-0.dtd"
   xmlns="http://www.w3.org/2000/svg"
   xmlns:svg="http://www.w3.org/2000/svg"><sodipodi:namedview
     id="namedview1"
     pagecolor="#ffffff"
     bordercolor="#000000"
     borderopacity="0.25"
     inkscape:showpageshadow="2"
     inkscape:pageopacity="0.0"
     inkscape:pagecheckerboard="true"
     inkscape:deskcolor="#d1d1d1"
     inkscape:document-units="mm"
     inkscape:zoom="0.68862935"
     inkscape:cx="547.46432"
     inkscape:cy="427.66112"
     inkscape:window-width="1920"
     inkscape:window-height="991"
     inkscape:window-x="-9"
     inkscape:window-y="-9"
     inkscape:window-maximized="1"
     inkscape:current-layer="g1"><inkscape:page
       x="0"
       y="0"
       width="297"
       height="210"
       id="page1"
       margin="0"
       bleed="0" /><inkscape:page
       x="220"
       y="0"
       width="127"
       height="127"
       id="page2"
       margin="0"
       bleed="0" /></sodipodi:namedview><defs
     id="defs1"><clipPath
       clipPathUnits="userSpaceOnUse"
       id="clipPath2"><path
         d="M 0,0 H 1500 V 1500 H 0 Z"
         transform="scale(0.31999999)"
         clip-rule="evenodd"
         id="path2" /></clipPath><clipPath
       clipPathUnits="userSpaceOnUse"
       id="clipPath4"><path
         d="M 0,0 H 1148 V 1148 H 0 Z"
         transform="matrix(0.22309686,0,0,0.22309686,-0.05760595,-0.05760581)"
         id="path4" /></clipPath><clipPath
       clipPathUnits="userSpaceOnUse"
       id="clipPath5"><path
         d="m 750,176.25821 c -316.86884,0 -573.74179,256.87295 -573.74179,573.74179 0,316.8689 256.87295,573.7418 573.74179,573.7418 316.8689,0 573.7418,-256.8729 573.7418,-573.7418 0,-316.86884 -256.8729,-573.74179 -573.7418,-573.74179 z"
         transform="matrix(0.31999999,0,0,0.31999999,0,10.559991)"
         id="path5" /></clipPath><clipPath
       clipPathUnits="userSpaceOnUse"
       id="clipPath6"><path
         d="M 176.25821,176.25821 H 1323.7418 V 1323.7418 H 176.25821 Z"
         transform="matrix(0.31999999,0,0,0.31999999,0,10.559991)"
         id="path6" /></clipPath><clipPath
       clipPathUnits="userSpaceOnUse"
       id="clipPath10"><path
         d="M 0,0 H 1500 V 1500 H 0 Z"
         transform="matrix(0.31999999,0,0,0.31999999,0,10.559991)"
         id="path10" /></clipPath><clipPath
       clipPathUnits="userSpaceOnUse"
       id="clipPath11"><path
         d="M 0,0 H 1500 V 1500 H 0 Z"
         transform="matrix(0.31999999,0,0,0.31999999,0,10.559991)"
         clip-rule="evenodd"
         id="path11" /></clipPath><clipPath
       clipPathUnits="userSpaceOnUse"
       id="clipPath12"><path
         d="M 0,0 H 1000 V 1000 H 0 Z"
         transform="matrix(0.25605601,0,0,0.25605601,-0.0280136,-0.02801424)"
         id="path12" /></clipPath><clipPath
       clipPathUnits="userSpaceOnUse"
       id="clipPath13"><path
         d="m 750,250.10941 c -276.08194,0 -499.89059,223.80865 -499.89059,499.89059 0,276.082 223.80865,499.8906 499.89059,499.8906 276.082,0 499.8906,-223.8086 499.8906,-499.8906 0,-276.08194 -223.8086,-499.89059 -499.8906,-499.89059 z"
         transform="matrix(0.31999999,0,0,0.31999999,0,10.559991)"
         id="path13" /></clipPath><clipPath
       clipPathUnits="userSpaceOnUse"
       id="clipPath14"><path
         d="m 750,250.10941 c -276.08194,0 -499.89059,223.80865 -499.89059,499.89059 0,276.082 223.80865,499.8906 499.89059,499.8906 276.082,0 499.8906,-223.8086 499.8906,-499.8906 0,-276.08194 -223.8086,-499.89059 -499.8906,-499.89059 z"
         transform="matrix(0.31999999,0,0,0.31999999,0,10.559991)"
         id="path14" /></clipPath><clipPath
       clipPathUnits="userSpaceOnUse"
       id="clipPath18"><path
         d="M 0,0 H 1500 V 1500 H 0 Z"
         transform="matrix(0.31999999,0,0,0.31999999,0,10.559991)"
         id="path18" /></clipPath><clipPath
       clipPathUnits="userSpaceOnUse"
       id="clipPath19"><path
         d="M 0,0 H 181 V 378 H 0 Z"
         transform="matrix(0.23313736,0,0,0.23313736,-0.48612423,-65.112956)"
         id="path19" /></clipPath><clipPath
       clipPathUnits="userSpaceOnUse"
       id="clipPath21"><path
         d="M 0,0 H 1500 V 1500 H 0 Z"
         transform="matrix(0.31999999,0,0,0.31999999,0,10.559991)"
         clip-rule="evenodd"
         id="path21" /></clipPath><clipPath
       clipPathUnits="userSpaceOnUse"
       id="clipPath22"><path
         d="M 0,0 H 168 V 378 H 0 Z"
         transform="matrix(0.23313736,0,0,0.23313736,-0.32440255,-65.112956)"
         id="path22" /></clipPath><clipPath
       clipPathUnits="userSpaceOnUse"
       id="clipPath24"><path
         d="M 0,0 H 1500 V 1500 H 0 Z"
         transform="matrix(0.31999999,0,0,0.31999999,0,10.559991)"
         clip-rule="evenodd"
         id="path24" /></clipPath><clipPath
       clipPathUnits="userSpaceOnUse"
       id="clipPath25"><path
         d="M 0,0 H 168 V 378 H 0 Z"
         transform="matrix(0.23313736,0,0,0.23313736,-0.39225368,-65.112956)"
         id="path25" /></clipPath><clipPath
       clipPathUnits="userSpaceOnUse"
       id="clipPath27"><path
         d="M 0,0 H 1500 V 1500 H 0 Z"
         transform="matrix(0.31999999,0,0,0.31999999,0,10.559991)"
         clip-rule="evenodd"
         id="path27" /></clipPath><clipPath
       clipPathUnits="userSpaceOnUse"
       id="clipPath28"><path
         d="M 0,0 H 173 V 378 H 0 Z"
         transform="matrix(0.23313736,0,0,0.23313736,-0.16421039,-65.112956)"
         id="path28" /></clipPath><clipPath
       clipPathUnits="userSpaceOnUse"
       id="clipPath30"><path
         d="M 0,0 H 1500 V 1500 H 0 Z"
         transform="matrix(0.31999999,0,0,0.31999999,0,10.559991)"
         clip-rule="evenodd"
         id="path30" /></clipPath><clipPath
       clipPathUnits="userSpaceOnUse"
       id="clipPath31"><path
         d="M 0,0 H 155 V 155 H 0 Z"
         transform="matrix(1.6632127,0,0,1.6632127,-1.0619452,-1.6141896)"
         id="path31" /></clipPath><clipPath
       clipPathUnits="userSpaceOnUse"
       id="clipPath32"><path
         d="m 594.59796,690.97052 c -42.50354,0 -76.95947,34.45593 -76.95947,76.95947 0,42.50354 34.45593,76.95954 76.95947,76.95954 42.50354,0 76.95954,-34.456 76.95954,-76.95954 0,-42.50354 -34.456,-76.95947 -76.95954,-76.95947 z"
         transform="matrix(0.31999999,0,0,0.31999999,0,10.559991)"
         id="path32" /></clipPath><clipPath
       clipPathUnits="userSpaceOnUse"
       id="clipPath33"><path
         d="m 594.59796,690.97052 c -42.50354,0 -76.95947,34.45593 -76.95947,76.95947 0,42.50354 34.45593,76.95954 76.95947,76.95954 42.50354,0 76.95954,-34.456 76.95954,-76.95954 0,-42.50354 -34.456,-76.95947 -76.95954,-76.95947 z"
         transform="matrix(0.31999999,0,0,0.31999999,0,10.559991)"
         id="path33" /></clipPath><clipPath
       clipPathUnits="userSpaceOnUse"
       id="clipPath37"><path
         d="M 0,0 H 1500 V 1500 H 0 Z"
         transform="matrix(0.31999999,0,0,0.31999999,0,10.559991)"
         id="path37" /></clipPath><clipPath
       clipPathUnits="userSpaceOnUse"
       id="clipPath39"><path
         d="m 564.15265,724.3075 h 75 v 87.5 h -75 z"
         transform="matrix(0,-5.988909,5.988909,0,-4342.999,3850.9271)"
         clip-rule="evenodd"
         id="path39" /></clipPath></defs><g
     inkscape:label="Calque 1"
     inkscape:groupmode="layer"
     id="layer1" /><g
     id="g1"
     inkscape:groupmode="layer"
     inkscape:label="1"
     transform="matrix(0.26458333,0,0,0.26458334,220.00001,0)"><g
       id="g41"><path
         id="path41"
         d="m 135.28712,173.15141 h 18.1146 v 20.93074 h -18.1146 z"
         style="fill:#000000;fill-opacity:0;fill-rule:nonzero;stroke:none"
         transform="matrix(1.3333333,0,0,-1.3333333,0,501.11996)" /></g><g
       id="g2"
       transform="translate(-52.209285)"><circle
         style="fill:#dc154a;fill-opacity:0;stroke:#1a1a1a;stroke-width:42.6667;stroke-dasharray:none;stroke-opacity:1"
         id="path8"
         cx="-218.02699"
         cy="396.8504"
         r="347.71664" /><g
         id="g18"
         clip-path="url(#clipPath18)"
         transform="matrix(2.052072,0,0,2.052072,-710.52431,-117.31673)"
         style="opacity:0"><g
           clip-path="url(#clipPath14)"
           id="g17"><g
             clip-path="url(#clipPath13)"
             id="g16"><g
               id="g15"><path
                 d="M 0,0 H 256 V 256 H 0 Z"
                 style="fill:#ffffff;fill-opacity:1;fill-rule:nonzero;stroke:none"
                 transform="matrix(1.2497265,0,0,1.2497265,80.035006,90.594998)"
                 clip-path="url(#clipPath12)"
                 id="path15" /></g></g></g></g><g
         id="g20"
         clip-path="url(#clipPath21)"
         transform="matrix(2.052072,0,0,2.052072,-714.02626,-117.31673)"><path
           d="m 20.673718,0.70589879 c -1.792927,0 -3.617158,-0.14229577 -5.475541,-0.42119546 C 13.345486,0.01149547 11.578173,-0.37839492 9.8933911,-0.88781375 8.2086092,-1.4029244 6.7002742,-2.0432553 5.3740777,-2.8116524 4.4406175,-3.3267631 3.7803651,-3.9983991 3.3933207,-4.8265604 3.0062762,-5.6604136 2.8639804,-6.5028045 2.9721252,-7.3537332 3.0774241,-8.2103537 3.3961666,-8.970213 3.9283527,-9.6304654 c 0.537878,-0.6602526 1.2208977,-1.0842936 2.049059,-1.2749696 0.8338532,-0.196369 1.7644674,-0.037 2.7889969,0.478113 1.7530834,0.9789952 3.6598474,1.7047036 5.7259814,2.1742796 2.071826,0.4724219 4.132269,0.705787 6.181328,0.705787 3.110585,0 5.327553,-0.4781138 6.648058,-1.4343413 1.326196,-0.9619193 1.992141,-2.1742793 1.992141,-3.6313883 0,-1.235127 -0.472422,-2.214122 -1.411574,-2.936984 -0.933461,-0.728554 -2.5784,-1.346118 -4.929125,-1.855537 L 15.744593,-18.9423 c -4.098118,-0.856621 -7.1432475,-2.316575 -9.1296963,-4.382709 -1.980757,-2.071827 -2.9711355,-4.792522 -2.9711355,-8.162085 0,-2.131591 0.4468087,-4.069659 1.343272,-5.817051 0.9021551,-1.753084 2.1628956,-3.267111 3.7793754,-4.542081 1.6221714,-1.280662 3.5545484,-2.265348 5.7942834,-2.948368 2.236889,-0.68302 4.701452,-1.02453 7.387996,-1.02453 2.390569,0 4.735603,0.290284 7.035102,0.865159 2.305192,0.569183 4.337175,1.411574 6.090259,2.527172 0.848083,0.509419 1.434341,1.158288 1.753084,1.946606 0.324434,0.791165 0.435425,1.579483 0.330126,2.367802 -0.108145,0.791164 -0.429733,1.485568 -0.967611,2.08321 -0.532186,0.600488 -1.203822,0.987532 -2.014908,1.161133 -0.813932,0.167909 -1.792927,-0.02846 -2.936985,-0.59195 -1.411574,-0.720017 -2.908525,-1.252203 -4.485162,-1.593713 -1.579483,-0.341509 -3.198809,-0.512264 -4.860823,-0.512264 -1.792927,0 -3.318337,0.236211 -4.576232,0.705787 -1.26074,0.472422 -2.219814,1.132674 -2.880066,1.980757 -0.660253,0.850928 -0.990379,1.832769 -0.990379,2.948368 0,1.237973 0.446809,2.239735 1.343272,3.005286 0.893618,0.768397 2.450333,1.385961 4.667301,1.855537 l 7.228625,1.536794 c 4.180649,0.896464 7.296927,2.339343 9.345986,4.325791 2.049059,1.980757 3.073588,4.593308 3.073588,7.831959 0,2.134437 -0.429733,4.0639671 -1.286354,5.7942836 -0.850928,1.7246246 -2.088901,3.2073465 -3.711073,4.4510114 -1.61648,1.2379732 -3.557394,2.18566295 -5.817051,2.84591528 -2.262502,0.66025234 -4.801059,0.99037851 -7.615669,0.99037851 z m 0,0"
           style="fill:#1a1a1a;fill-opacity:1;fill-rule:nonzero;stroke:none"
           aria-label="S"
           transform="matrix(1.3725813,0,0,1.3725813,121.30724,277.85281)"
           clip-path="url(#clipPath19)"
           id="path20" /></g><g
         id="g23"
         clip-path="url(#clipPath24)"
         transform="matrix(2.052072,0,0,2.052072,-714.02626,-117.31673)"><path
           d="m 15.300473,0.70589879 c -2.649547,0 -4.84944,-0.48949742 -6.6025235,-1.46849227 C 6.9505575,-1.7472801 5.6613579,-3.2328479 4.8275047,-5.2136049 3.9993434,-7.2000537 3.5866857,-9.6674623 3.5866857,-12.612985 v -14.457249 c 0,-1.622172 0.4126577,-2.837377 1.240819,-3.642771 0.8338532,-0.811086 2.017754,-1.218052 3.5517023,-1.218052 1.5396401,0 2.734925,0.406966 3.585853,1.218052 0.856621,0.805394 1.286354,2.020599 1.286354,3.642771 v 14.719074 c 0,1.875458 0.381352,3.2728022 1.14975,4.1891869 0.765551,0.9192306 1.980757,1.377423 3.642771,1.377423 1.835615,0 3.338259,-0.6488687 4.50793,-1.946606 1.175363,-1.3034289 1.764467,-3.0223619 1.764467,-5.1567989 v -13.182279 c 0,-1.622172 0.415504,-2.837377 1.252203,-3.642771 0.833853,-0.811086 2.017754,-1.218052 3.551702,-1.218052 1.576637,0 2.780459,0.406966 3.608621,1.218052 0.833853,0.805394 1.252202,2.020599 1.252202,3.642771 v 22.7217873 c 0,3.2870321 -1.556715,4.92912522 -4.667301,4.92912522 -1.542486,0 -2.717849,-0.42688729 -3.528934,-1.27497003 C 24.979431,-1.550912 24.578157,-2.7689637 24.578157,-4.3484467 v -4.2916402 l 0.956227,2.4930218 c -0.941998,2.1799711 -2.288116,3.8675988 -4.0412,5.0657291 -1.747392,1.18959259 -3.81068,1.78723479 -6.192711,1.78723479 z m 0,0"
           style="fill:#1a1a1a;fill-opacity:1;fill-rule:nonzero;stroke:none"
           aria-label="u"
           transform="matrix(1.3725813,0,0,1.3725813,213.56526,277.85281)"
           clip-path="url(#clipPath22)"
           id="path23" /></g><g
         id="g26"
         clip-path="url(#clipPath27)"
         transform="matrix(2.052072,0,0,2.052072,-714.02626,-117.31673)"><path
           d="m 8.570676,0.58067852 c -1.5794829,0 -2.786151,-0.42688729 -3.6200042,-1.27497003 C 4.1225105,-1.550912 3.7098528,-2.7689637 3.7098528,-4.3484467 V -27.070234 c 0,-1.576637 0.4126577,-2.780459 1.240819,-3.60862 0.8338532,-0.833854 1.9978325,-1.252203 3.4947839,-1.252203 1.5311024,0 2.7036193,0.418349 3.5175513,1.252203 0.811086,0.828161 1.218052,2.031983 1.218052,3.60862 v 3.642772 l -0.705787,-2.105978 c 0.984686,-2.094593 2.447487,-3.705381 4.382709,-4.838056 1.940914,-1.129828 4.149345,-1.696165 6.625291,-1.696165 2.518635,0 4.587615,0.483805 6.204095,1.445725 1.622172,0.956227 2.840223,2.407644 3.654155,4.348558 0.811086,1.94376 1.218052,4.411169 1.218052,7.39938 v 14.5255513 c 0,1.579483 -0.41835,2.7975347 -1.252203,3.65415519 -0.828161,0.84808274 -2.031983,1.27497003 -3.60862,1.27497003 -1.542486,0 -2.729233,-0.42688729 -3.563086,-1.27497003 C 25.307504,-1.550912 24.894846,-2.7689637 24.894846,-4.3484467 V -18.430035 c 0,-2.177125 -0.395582,-3.745225 -1.183901,-4.701452 -0.791164,-0.96192 -1.997832,-1.445725 -3.620004,-1.445725 -2.049059,0 -3.682614,0.643177 -4.894974,1.923839 -1.215206,1.27497 -1.821386,2.982519 -1.821386,5.122647 v 13.1822793 c 0,3.2870321 -1.60225,4.92912522 -4.803905,4.92912522 z m 0,0"
           style="fill:#1a1a1a;fill-opacity:1;fill-rule:nonzero;stroke:none"
           aria-label="n"
           transform="matrix(1.3725813,0,0,1.3725813,242.13839,277.85281)"
           clip-path="url(#clipPath25)"
           id="path26" /></g><g
         id="g29"
         clip-path="url(#clipPath30)"
         transform="matrix(2.052072,0,0,2.052072,-714.02626,-117.31673)"><path
           d="m 15.936963,0.70589879 c -2.732078,0 -5.134031,-0.66025234 -7.205857,-1.98075699 C 6.6649716,-2.6010547 5.0570295,-4.5021261 3.9044338,-6.9780724 2.7489922,-9.4511727 2.1741173,-12.373928 2.1741173,-15.743491 c 0,-3.369564 0.5748749,-6.266706 1.7303165,-8.697117 1.1525957,-2.436104 2.7605378,-4.314408 4.8266722,-5.634912 2.071826,-1.326197 4.473779,-1.992141 7.205857,-1.992141 2.473101,0 4.658764,0.600488 6.556989,1.798618 1.89538,1.192439 3.187425,2.749154 3.870445,4.667301 H 25.65861 v -15.163036 c 0,-1.622172 0.40412,-2.848761 1.218052,-3.676923 0.811085,-0.833853 2.00637,-1.252202 3.585853,-1.252202 1.531102,0 2.723541,0.418349 3.574469,1.252202 0.856621,0.828162 1.286354,2.054751 1.286354,3.676923 v 36.4163313 c 0,1.579483 -0.41835,2.7975347 -1.252203,3.65415519 -0.828161,0.84808274 -2.009216,1.27497003 -3.540318,1.27497003 -1.542486,0 -2.729233,-0.42688729 -3.563086,-1.27497003 C 26.13957,-1.550912 25.726912,-2.7689637 25.726912,-4.3484467 v -4.3599421 l 0.705787,2.5044054 c -0.600488,2.0889018 -1.872612,3.7622999 -3.813527,5.0201945 -1.935222,1.2578945 -4.163574,1.88968769 -6.682209,1.88968769 z M 18.81703,-6.5227259 c 1.403036,0 2.618242,-0.3415098 3.642771,-1.0245295 1.02453,-0.6830197 1.835615,-1.6961655 2.436104,-3.0394376 0.597642,-1.348964 0.899309,-3.067897 0.899309,-5.156798 0,-3.110586 -0.643177,-5.401547 -1.923839,-6.875732 -1.283508,-1.471338 -2.96829,-2.20843 -5.054345,-2.20843 -1.36604,0 -2.572708,0.318743 -3.620005,0.956228 -1.047296,0.637485 -1.861228,1.633555 -2.436103,2.982519 -0.569183,1.343272 -0.853775,3.059359 -0.853775,5.145415 0,3.113431 0.637485,5.42716 1.912455,6.9440329 1.280662,1.5197187 2.948369,2.2767322 4.997428,2.2767322 z m 0,0"
           style="fill:#1a1a1a;fill-opacity:1;fill-rule:nonzero;stroke:none"
           aria-label="d"
           transform="matrix(1.3725813,0,0,1.3725813,290.78538,277.85281)"
           clip-path="url(#clipPath28)"
           id="path29" /></g><g
         id="g37"
         clip-path="url(#clipPath37)"
         transform="matrix(2.052072,0,0,2.052072,-714.02626,-117.31673)"><g
           clip-path="url(#clipPath33)"
           id="g36"><g
             clip-path="url(#clipPath32)"
             id="g35"><g
               id="g34"><path
                 d="M 0,0 H 256 V 256 H 0 Z"
                 style="fill:#ff5500;fill-opacity:1;fill-rule:nonzero;stroke:none"
                 transform="matrix(0.19239871,0,0,0.19239871,165.64431,231.67055)"
                 clip-path="url(#clipPath31)"
                 id="path34" /></g></g></g></g><path
         id="path38"
         d="m 183.58546,78.86792 c 32.18424,-55.74474 112.64483,-55.74474 144.82909,0 l 78.12906,135.32353 78.12906,135.32353 c 32.18426,55.74476 -8.04605,125.42566 -72.41455,125.42566 H 99.741852 c -64.368477,0 -104.5987703,-69.68094 -72.414543,-125.42566 L 105.45639,214.19145 Z"
         style="fill:#ffffff;fill-opacity:1;fill-rule:nonzero;stroke:none"
         transform="matrix(0,0.10964652,-0.10964652,0,-291.78552,380.54785)"
         clip-path="url(#clipPath39)" /><g
         id="g39"
         transform="matrix(2.052072,0,0,2.052072,-714.02626,-117.31673)"><g
           id="g40"><path
             id="path40"
             d="m 5.357476,0.31232168 c -0.9921876,0 -1.7460939,-0.28906251 -2.2656251,-0.85937504 C 2.5684133,-1.1173659 2.3106008,-1.9220534 2.3106008,-2.9533035 V -16.640804 c 0,-1.0625 0.2578125,-1.878906 0.7812501,-2.453125 0.5195312,-0.570313 1.2734375,-0.859375 2.2656251,-0.859375 0.9570313,0 1.6953125,0.289062 2.2187501,0.859375 0.5195312,0.574219 0.78125,1.390625 0.78125,2.453125 v 13.6875005 c 0,1.0312501 -0.2578125,1.8359376 -0.765625,2.40625014 C 7.091851,0.02325917 6.3457573,0.31232168 5.357476,0.31232168 Z m 0,-23.54687568 c -1.1250001,0 -1.9921876,-0.257813 -2.5937501,-0.78125 -0.5937501,-0.519532 -0.8906251,-1.257813 -0.8906251,-2.21875 0,-0.976563 0.296875,-1.726563 0.8906251,-2.250001 0.6015625,-0.519531 1.46875,-0.78125 2.5937501,-0.78125 1.1132813,0 1.9609375,0.261719 2.5468751,0.78125 0.59375,0.523438 0.890625,1.273438 0.890625,2.250001 0,0.960937 -0.296875,1.699218 -0.890625,2.21875 -0.5859376,0.523437 -1.4335938,0.78125 -2.5468751,0.78125 z M 22.669977,0.43732168 c -1.835938,0 -3.371094,-0.30859376 -4.609376,-0.92187504 -1.242187,-0.61328124 -2.164062,-1.50390634 -2.765625,-2.67187514 -0.605468,-1.1757813 -0.90625,-2.6562501 -0.90625,-4.4375002 v -7.5156253 h -1.671875 c -0.75,0 -1.335937,-0.195312 -1.75,-0.59375 -0.40625,-0.40625 -0.609375,-0.957031 -0.609375,-1.65625 0,-0.738281 0.203125,-1.300781 0.609375,-1.6875 0.414063,-0.382813 1,-0.578125 1.75,-0.578125 h 1.671875 v -3.046875 c 0,-1.007813 0.265625,-1.773438 0.796875,-2.296875 0.539063,-0.519532 1.289063,-0.78125 2.25,-0.78125 0.988282,0 1.734376,0.261718 2.234376,0.78125 0.507812,0.523437 0.765625,1.289062 0.765625,2.296875 v 3.046875 h 3.796875 c 0.75,0 1.320312,0.195312 1.71875,0.578125 0.394531,0.386719 0.59375,0.949219 0.59375,1.6875 0,0.699219 -0.199219,1.25 -0.59375,1.65625 -0.398438,0.398438 -0.96875,0.59375 -1.71875,0.59375 h -3.796875 v 7.2656253 c 0,1.1250001 0.257812,1.9687501 0.78125,2.5312501 0.519531,0.5546876 1.351562,0.8281251 2.5,0.8281251 0.394531,0 0.765625,-0.035156 1.109375,-0.109375 0.351562,-0.082031 0.675781,-0.140625 0.96875,-0.171875 0.375,-0.019531 0.679687,0.1015625 0.921875,0.359375 0.238281,0.25 0.359375,0.796875 0.359375,1.640625 0,0.6484376 -0.109375,1.2109376 -0.328125,1.6875001 -0.210938,0.48046879 -0.578125,0.8242188 -1.109375,1.03125006 -0.355469,0.13281251 -0.835938,0.25000001 -1.4375,0.34375002 -0.59375,0.09375 -1.105469,0.140625 -1.53125,0.140625 z m 0,0"
             style="fill:#ff5500;fill-opacity:1;fill-rule:nonzero;stroke:none"
             aria-label="it"
             transform="translate(330.93549,208.91954)" /></g></g></g><ellipse
       style="opacity:0;fill:#dc154a;stroke-width:1.45529"
       id="path3"
       cx="-372.48349"
       cy="243.614"
       rx="271.74963"
       ry="167.9505" /><ellipse
       style="opacity:0;fill:#dc154a;stroke-width:1.45529"
       id="path7"
       cx="-606.25433"
       cy="352.48645"
       rx="85.241219"
       ry="81.021355" /></g></svg>
